<svg width="17" height="18" viewBox="0 0 17 18" fill="none" xmlns="http://www.w3.org/2000/svg">
    <g clip-path="url(#clip0)">
        <path d="M8.07717 4.95702C5.80574 4.95702 3.9736 6.76053 3.9736 8.99647C3.9736 11.2324 5.80574 13.0359 8.07717 13.0359C10.3486 13.0359 12.1807 11.2324 12.1807 8.99647C12.1807 6.76053 10.3486 4.95702 8.07717 4.95702ZM8.07717 11.6226C6.60931 11.6226 5.40931 10.4449 5.40931 8.99647C5.40931 7.54803 6.60574 6.3703 8.07717 6.3703C9.5486 6.3703 10.745 7.54803 10.745 8.99647C10.745 10.4449 9.54502 11.6226 8.07717 11.6226ZM13.3057 4.79178C13.3057 5.31561 12.8772 5.73397 12.3486 5.73397C11.8165 5.73397 11.3915 5.3121 11.3915 4.79178C11.3915 4.27147 11.82 3.8496 12.3486 3.8496C12.8772 3.8496 13.3057 4.27147 13.3057 4.79178ZM16.0236 5.74803C15.9629 4.48592 15.67 3.36796 14.7307 2.44686C13.795 1.52577 12.6593 1.23749 11.3772 1.17421C10.0557 1.10038 6.09503 1.10038 4.7736 1.17421C3.49503 1.23397 2.35931 1.52225 1.42003 2.44335C0.480744 3.36444 0.191458 4.48241 0.127173 5.74452C0.0521729 7.0453 0.0521729 10.9441 0.127173 12.2449C0.187887 13.507 0.480744 14.625 1.42003 15.5461C2.35931 16.4672 3.49146 16.7555 4.7736 16.8187C6.09503 16.8926 10.0557 16.8926 11.3772 16.8187C12.6593 16.759 13.795 16.4707 14.7307 15.5461C15.6664 14.625 15.9593 13.507 16.0236 12.2449C16.0986 10.9441 16.0986 7.04882 16.0236 5.74803ZM14.3165 13.6406C14.0379 14.3297 13.4986 14.8605 12.795 15.1383C11.7415 15.5496 9.24145 15.4547 8.07717 15.4547C6.91288 15.4547 4.40931 15.5461 3.35931 15.1383C2.65931 14.864 2.12003 14.3332 1.83789 13.6406C1.42003 12.6035 1.51646 10.1426 1.51646 8.99647C1.51646 7.85038 1.4236 5.38592 1.83789 4.35233C2.11646 3.66327 2.65574 3.13241 3.35931 2.85467C4.41288 2.44335 6.91288 2.53827 8.07717 2.53827C9.24145 2.53827 11.745 2.44686 12.795 2.85467C13.495 3.12889 14.0343 3.65975 14.3165 4.35233C14.7343 5.38944 14.6379 7.85038 14.6379 8.99647C14.6379 10.1426 14.7343 12.607 14.3165 13.6406Z" fill="#0065FF" />
    </g>
    <defs>
        <clipPath id="clip0">
            <rect width="16" height="18" fill="white" transform="translate(0.0736084)" />
        </clipPath>
    </defs>
</svg>
    